<svg xmlns="http://www.w3.org/2000/svg" width="805" height="600"><rect width="805" height="600" x="0" y="0" fill="#FFFFFF" id="background"/><g id="viz"><clipPath id="serieClipPath"><rect x="-50" y="-10" width="805" height="600"/></clipPath><g transform="translate(0,0)"><g transform="translate(50,10)" clip-path="url(#serieClipPath)"><g id="axis"><g transform="translate(0,570)" fill="none" font-size="10" font-family="sans-serif" text-anchor="middle"><path class="domain" stroke="currentColor" d="M0.5,6V0.5H740.5V6"/><g class="tick" opacity="1" transform="translate(0.5,0)"><line stroke="currentColor" y2="6"/><text fill="currentColor" y="9" dy="0.71em">July</text></g><g class="tick" opacity="1" transform="translate(93.6326949384405,0)"><line stroke="currentColor" y2="6"/><text fill="currentColor" y="9" dy="0.71em">October</text></g><g class="tick" opacity="1" transform="translate(186.765389876881,0)"><line stroke="currentColor" y2="6"/><text fill="currentColor" y="9" dy="0.71em">2024</text></g><g class="tick" opacity="1" transform="translate(278.8857729138167,0)"><line stroke="currentColor" y2="6"/><text fill="currentColor" y="9" dy="0.71em">April</text></g><g class="tick" opacity="1" transform="translate(371.00615595075243,0)"><line stroke="currentColor" y2="6"/><text fill="currentColor" y="9" dy="0.71em">July</text></g><g class="tick" opacity="1" transform="translate(464.13885088919284,0)"><line stroke="currentColor" y2="6"/><text fill="currentColor" y="9" dy="0.71em">October</text></g><g class="tick" opacity="1" transform="translate(557.2715458276334,0)"><line stroke="currentColor" y2="6"/><text fill="currentColor" y="9" dy="0.71em">2025</text></g><g class="tick" opacity="1" transform="translate(648.3796169630643,0)"><line stroke="currentColor" y2="6"/><text fill="currentColor" y="9" dy="0.71em">April</text></g><g class="tick" opacity="1" transform="translate(740.5,0)"><line stroke="currentColor" y2="6"/><text fill="currentColor" y="9" dy="0.71em">July</text></g><text x="740" dy="-5" text-anchor="end" style="font-family: Arial, sans-serif; font-size: 12px; fill: rgb(123, 123, 123); font-weight: bold;">Fecha</text></g><g transform="translate(0,0)" fill="none" font-size="10" font-family="sans-serif" text-anchor="end"><path class="domain" stroke="currentColor" d="M0.5,570.5V0.5"/><g class="tick" opacity="1" transform="translate(0,570.5)"><line stroke="currentColor" x2="-6"/><text fill="currentColor" x="-9" dy="0.32em">500</text></g><g class="tick" opacity="1" transform="translate(0,518.6818181818181)"><line stroke="currentColor" x2="-6"/><text fill="currentColor" x="-9" dy="0.32em">1,000</text></g><g class="tick" opacity="1" transform="translate(0,466.8636363636363)"><line stroke="currentColor" x2="-6"/><text fill="currentColor" x="-9" dy="0.32em">1,500</text></g><g class="tick" opacity="1" transform="translate(0,415.04545454545456)"><line stroke="currentColor" x2="-6"/><text fill="currentColor" x="-9" dy="0.32em">2,000</text></g><g class="tick" opacity="1" transform="translate(0,363.22727272727275)"><line stroke="currentColor" x2="-6"/><text fill="currentColor" x="-9" dy="0.32em">2,500</text></g><g class="tick" opacity="1" transform="translate(0,311.4090909090909)"><line stroke="currentColor" x2="-6"/><text fill="currentColor" x="-9" dy="0.32em">3,000</text></g><g class="tick" opacity="1" transform="translate(0,259.5909090909091)"><line stroke="currentColor" x2="-6"/><text fill="currentColor" x="-9" dy="0.32em">3,500</text></g><g class="tick" opacity="1" transform="translate(0,207.77272727272728)"><line stroke="currentColor" x2="-6"/><text fill="currentColor" x="-9" dy="0.32em">4,000</text></g><g class="tick" opacity="1" transform="translate(0,155.95454545454544)"><line stroke="currentColor" x2="-6"/><text fill="currentColor" x="-9" dy="0.32em">4,500</text></g><g class="tick" opacity="1" transform="translate(0,104.13636363636361)"><line stroke="currentColor" x2="-6"/><text fill="currentColor" x="-9" dy="0.32em">5,000</text></g><g class="tick" opacity="1" transform="translate(0,52.318181818181834)"><line stroke="currentColor" x2="-6"/><text fill="currentColor" x="-9" dy="0.32em">5,500</text></g><g class="tick" opacity="1" transform="translate(0,0.5)"><line stroke="currentColor" x2="-6"/><text fill="currentColor" x="-9" dy="0.32em">6,000</text></g><text x="4" text-anchor="start" dominant-baseline="hanging" style="font-family: Arial, sans-serif; font-size: 12px; fill: rgb(123, 123, 123); font-weight: bold;">Valor</text></g></g><g id="viz"><g id="Luz"><path d="M31.381668946648425,169.86C47.072503419972634,169.86,47.072503419972634,197.63454545454547,62.76333789329685,197.63454545454547C77.94801641586866,197.63454545454547,77.94801641586866,189.96545454545455,93.1326949384405,189.96545454545455C108.82352941176471,189.96545454545455,108.82352941176471,161.67272727272731,124.51436388508893,161.67272727272731C139.69904240766073,161.67272727272731,139.69904240766073,253.3909090909091,154.88372093023256,253.3909090909091C170.57455540355676,253.3909090909091,170.57455540355676,91.7181818181818,186.265389876881,91.7181818181818C201.95622435020522,91.7181818181818,201.95622435020522,159.60000000000002,217.64705882352942,159.60000000000002C232.32558139534882,159.60000000000002,232.32558139534882,197.84181818181818,247.00410396716825,197.84181818181818C262.6949384404925,197.84181818181818,262.6949384404925,256.1890909090909,278.3857729138167,256.1890909090909C293.5704514363885,256.1890909090909,293.5704514363885,278.88545454545454,308.7551299589603,278.88545454545454C324.44596443228454,278.88545454545454,324.44596443228454,106.02000000000002,340.13679890560877,106.02000000000002C355.32147742818063,106.02000000000002,355.32147742818063,158.7709090909091,370.50615595075243,158.7709090909091C386.1969904240766,158.7709090909091,386.1969904240766,48.709090909090904,401.88782489740083,48.709090909090904C417.57865937072506,48.709090909090904,417.57865937072506,143.53636363636363,433.2694938440493,143.53636363636363C448.45417236662104,143.53636363636363,448.45417236662104,213.18,463.63885088919284,213.18C479.3296853625171,213.18,479.3296853625171,153.38181818181815,495.02051983584136,153.38181818181815C510.20519835841316,153.38181818181815,510.20519835841316,136.07454545454542,525.389876880985,136.07454545454542C541.0807113543092,136.07454545454542,541.0807113543092,240.43636363636367,556.7715458276334,240.43636363636367C572.4623803009576,240.43636363636367,572.4623803009576,16.789090909090877,588.1532147742818,16.789090909090877C602.3255813953488,16.789090909090877,602.3255813953488,123.74181818181819,616.4979480164159,123.74181818181819C632.1887824897401,123.74181818181819,632.1887824897401,181.46727272727276,647.8796169630643,181.46727272727276C663.0642954856362,181.46727272727276,663.0642954856362,190.58727272727276,678.2489740082079,190.58727272727276C693.939808481532,190.58727272727276,693.939808481532,131.3072727272727,709.6306429548563,131.3072727272727C724.8153214774281,131.3072727272727,724.8153214774281,128.82,740,128.82" stroke="#ff7f0e" fill="none"/><text font-family="sans-serif" font-size="10" class="labels" x="588.1532147742818" y="16.789090909090877" dx="0" dy="-4" text-anchor="middle">Luz</text></g><g id="Agua"><path d="M31.381668946648425,551.3454545454546C47.072503419972634,551.3454545454546,47.072503419972634,551.3454545454546,62.76333789329685,551.3454545454546C77.94801641586866,551.3454545454546,77.94801641586866,551.3454545454546,93.1326949384405,551.3454545454546C108.82352941176471,551.3454545454546,108.82352941176471,551.3454545454546,124.51436388508893,551.3454545454546C139.69904240766073,551.3454545454546,139.69904240766073,551.3454545454546,154.88372093023256,551.3454545454546C170.57455540355676,551.3454545454546,170.57455540355676,402.41999999999996,186.265389876881,402.41999999999996C201.95622435020522,402.41999999999996,201.95622435020522,514.4509090909091,217.64705882352942,514.4509090909091C232.32558139534882,514.4509090909091,232.32558139534882,547.4072727272727,247.00410396716825,547.4072727272727C262.6949384404925,547.4072727272727,262.6949384404925,547.4072727272727,278.3857729138167,547.4072727272727C293.5704514363885,547.4072727272727,293.5704514363885,547.4072727272727,308.7551299589603,547.4072727272727C324.44596443228454,547.4072727272727,324.44596443228454,547.4072727272727,340.13679890560877,547.4072727272727C355.32147742818063,547.4072727272727,355.32147742818063,547.4072727272727,370.50615595075243,547.4072727272727C386.1969904240766,547.4072727272727,386.1969904240766,547.4072727272727,401.88782489740083,547.4072727272727C417.57865937072506,547.4072727272727,417.57865937072506,514.4509090909091,433.2694938440493,514.4509090909091C448.45417236662104,514.4509090909091,448.45417236662104,547.4072727272727,463.63885088919284,547.4072727272727C479.3296853625171,547.4072727272727,479.3296853625171,547.4072727272727,495.02051983584136,547.4072727272727C510.20519835841316,547.4072727272727,510.20519835841316,547.4072727272727,525.389876880985,547.4072727272727C541.0807113543092,547.4072727272727,541.0807113543092,543.5727272727272,556.7715458276334,543.5727272727272C572.4623803009576,543.5727272727272,572.4623803009576,203.43818181818185,588.1532147742818,203.43818181818185C602.3255813953488,203.43818181818185,602.3255813953488,506.9890909090909,616.4979480164159,506.9890909090909C632.1887824897401,506.9890909090909,632.1887824897401,542.2254545454546,647.8796169630643,542.2254545454546C663.0642954856362,542.2254545454546,663.0642954856362,542.2254545454546,678.2489740082079,542.2254545454546C693.939808481532,542.2254545454546,693.939808481532,542.2254545454546,709.6306429548563,542.2254545454546C724.8153214774281,542.2254545454546,724.8153214774281,542.2254545454546,740,542.2254545454546" stroke="#1f77b4" fill="none"/><text font-family="sans-serif" font-size="10" class="labels" x="588.1532147742818" y="203.43818181818185" dx="0" dy="-4" text-anchor="middle">Agua</text></g><g id="Telefono"><path d="M31.381668946648425,368.63454545454545C47.072503419972634,368.63454545454545,47.072503419972634,394.0254545454545,62.76333789329685,394.0254545454545C77.94801641586866,394.0254545454545,77.94801641586866,319.3036363636363,93.1326949384405,319.3036363636363C108.82352941176471,319.3036363636363,108.82352941176471,319.3036363636363,124.51436388508893,319.3036363636363C139.69904240766073,319.3036363636363,139.69904240766073,399.9327272727273,154.88372093023256,399.9327272727273C170.57455540355676,399.9327272727273,170.57455540355676,257.3290909090909,186.265389876881,257.3290909090909C201.95622435020522,257.3290909090909,201.95622435020522,249.14181818181817,217.64705882352942,249.14181818181817C232.32558139534882,249.14181818181817,232.32558139534882,237.74181818181816,247.00410396716825,237.74181818181816C262.6949384404925,237.74181818181816,262.6949384404925,245.9290909090909,278.3857729138167,245.9290909090909C293.5704514363885,245.9290909090909,293.5704514363885,171.5181818181818,308.7551299589603,171.5181818181818C324.44596443228454,171.5181818181818,324.44596443228454,236.91272727272724,340.13679890560877,236.91272727272724C355.32147742818063,236.91272727272724,355.32147742818063,230.5909090909091,370.50615595075243,230.5909090909091C386.1969904240766,230.5909090909091,386.1969904240766,230.5909090909091,401.88782489740083,230.5909090909091C417.57865937072506,230.5909090909091,417.57865937072506,228.10363636363638,433.2694938440493,228.10363636363638C448.45417236662104,228.10363636363638,448.45417236662104,235.56545454545451,463.63885088919284,235.56545454545451C479.3296853625171,235.56545454545451,479.3296853625171,229.76181818181817,495.02051983584136,229.76181818181817C510.20519835841316,229.76181818181817,510.20519835841316,237.74181818181816,525.389876880985,237.74181818181816C541.0807113543092,237.74181818181816,541.0807113543092,221.57454545454544,556.7715458276334,221.57454545454544C572.4623803009576,221.57454545454544,572.4623803009576,73.27090909090907,588.1532147742818,73.27090909090907C602.3255813953488,73.27090909090907,602.3255813953488,71.3018181818182,616.4979480164159,71.3018181818182C632.1887824897401,71.3018181818182,632.1887824897401,177.9436363636364,647.8796169630643,177.9436363636364C663.0642954856362,177.9436363636364,663.0642954856362,241.9909090909091,678.2489740082079,241.9909090909091C693.939808481532,241.9909090909091,693.939808481532,241.47272727272724,709.6306429548563,241.47272727272724C724.8153214774281,241.47272727272724,724.8153214774281,241.47272727272724,740,241.47272727272724" stroke="#2ca02c" fill="none"/><text font-family="sans-serif" font-size="10" class="labels" x="616.4979480164159" y="71.3018181818182" dx="0" dy="-4" text-anchor="middle">Telefono</text></g></g></g><text y="4" x="4" style="font-family: Arial, sans-serif; font-size: 12px; fill: black; font-weight: bold; dominant-baseline: hanging;"/></g><g id="grid"><rect x="0" y="0" width="805" height="600" fill="none" stroke="#ccc"/></g></g></svg>